<svg width="106" height="38" viewBox="0 0 106 38" fill="none" xmlns="http://www.w3.org/2000/svg">
<rect x="1" y="1" width="104" height="36" rx="18" fill="white" stroke="#838383" stroke-width="2"/>
<path d="M12.2929 18.2929C11.9024 18.6834 11.9024 19.3166 12.2929 19.7071L18.6569 26.0711C19.0474 26.4616 19.6805 26.4616 20.0711 26.0711C20.4616 25.6805 20.4616 25.0474 20.0711 24.6569L14.4142 19L20.0711 13.3431C20.4616 12.9526 20.4616 12.3195 20.0711 11.9289C19.6805 11.5384 19.0474 11.5384 18.6569 11.9289L12.2929 18.2929ZM28 19V18H13V19V20H28V19Z" fill="#838383"/>
<path d="M45.625 12.2812V26.375H43.9062V12.2812H45.625ZM33.7656 19.8438C36.5156 19.8281 39.9688 19.8281 43.0312 19.5L43.1094 20.7812C41.8672 20.9688 40.5938 21.0859 39.3438 21.1562V25.9531H37.6094V21.2344C36.3281 21.2734 35.0938 21.2812 33.9688 21.2812L33.7656 19.8438ZM42.0781 16.875V18.2812H35.0469V13.0469H41.9062V14.4219H36.7812V16.875H42.0781ZM60.5469 23.3125V24.75H47.6406V23.3125H53.2031V21.0156H49.1719V16.3906H57.2969V14.6406H49.1406V13.2344H59.0156V17.7656H50.9062V19.5938H59.3438V21.0156H54.9219V23.3125H60.5469ZM72.5312 12.2656V17.7812H74.625V19.2344H72.5312V26.3594H70.7969V12.2656H72.5312ZM68.7969 13.7344C68.7969 17.8906 67.0781 21.5312 62.375 23.8438L61.3906 22.5C64.8281 20.7891 66.6875 18.3828 67.0469 15.1719H62.1562V13.7344H68.7969ZM87.0938 12.2656V26.3906H85.3438V12.2656H87.0938ZM82.875 13.7656C82.875 17.9688 81.25 21.5469 76.2969 23.8906L75.3906 22.5C79.0859 20.7422 80.8047 18.3516 81.1094 15.1406H76.1094V13.7656H82.875Z" fill="#838383"/>
</svg>
