<svg width="132" height="28" viewBox="0 0 132 28" fill="none" xmlns="http://www.w3.org/2000/svg">
<path d="M23.4384 3.94167V3.10556C23.4384 1.43333 24.7674 0 26.4588 0C28.1502 0 29.4792 1.43333 29.4792 3.10556V21.5H23.3176V17.5583H19.089C17.1559 19.9472 14.1355 21.5 10.7527 21.5C4.83265 21.5 0 16.7222 0 10.75C0 4.77778 4.83265 0 10.7527 0C14.1355 0 17.1559 1.55278 19.089 3.94167H23.4384ZM21.5053 9.55556C21.5053 9.91389 21.6261 10.3917 21.6261 10.75C21.6261 11.1083 21.6261 11.5861 21.5053 11.9444H23.4384V9.55556H21.5053ZM10.7527 15.6472C13.5314 15.6472 15.7061 13.4972 15.7061 10.75C15.7061 8.00278 13.5314 5.85278 10.7527 5.85278C7.97388 5.85278 5.79919 8.00278 5.79919 10.75C5.79919 13.4972 8.0947 15.6472 10.7527 15.6472ZM46.2727 1.43333C47.1184 2.26944 47.7225 3.58333 47.7225 4.89722V21.5H41.5608V7.40556C41.5608 6.68889 40.9567 6.21111 40.3527 6.21111H33.5869C31.8955 6.21111 30.5665 4.77778 30.5665 3.10556C30.5665 1.43333 31.8955 0 33.5869 0H42.769C44.098 0 45.427 0.597222 46.2727 1.43333ZM52.0718 0C53.7633 0 55.0923 1.43333 55.0923 3.10556V21.5H48.9306V3.10556C48.9306 1.43333 50.2596 0 52.0718 0ZM124.924 21.5C123.233 21.5 121.904 20.0667 121.904 18.3944C121.904 16.7222 123.233 15.2889 124.924 15.2889C126.616 15.2889 127.945 16.7222 127.945 18.3944C127.945 20.0667 126.616 21.5 124.924 21.5Z" fill="#FF4752"/>
<path d="M71.0131 4.89722C71.0131 3.58333 70.409 2.26944 69.5633 1.43333C68.7175 0.597222 67.3886 0 66.0596 0H59.7771C58.0857 0 56.7567 1.43333 56.7567 3.10556C56.7567 4.77778 58.0857 6.21111 59.7771 6.21111H63.6433C64.2474 6.21111 64.8514 6.68889 64.8514 7.40556L64.8514 12.5H71.0131L71.0131 4.89722Z" fill="#FF4752"/>
<path d="M80.8933 3.10556C80.8933 1.43333 79.5661 0 77.8746 0C76.0624 0 74.7304 1.43333 74.7304 3.10556V12.5H80.8933V3.10556Z" fill="#FF4752"/>
<path d="M109.07 3.10556C109.07 1.43333 107.741 0 106.05 0C104.238 0 102.909 1.43333 102.909 3.10556V21.5H109.07V3.10556Z" fill="#FF4752"/>
<path d="M117.648 3.10556C117.648 1.43333 116.319 0 114.628 0C112.816 0 111.487 1.43333 111.487 3.10556V21.5H117.648V3.10556Z" fill="#FF4752"/>
<path d="M80.5969 4.77783H84.238C85.5633 4.77783 86.6377 5.84737 86.6377 7.16672C86.6377 8.48607 85.5633 9.55561 84.238 9.55561H80.5969V4.77783Z" fill="#FF4752"/>
<path d="M108.466 8.36133H113.299V13.7363H108.466V8.36133Z" fill="#FF4752"/>
<path d="M81.8865 12.5V22.1875H66.4235C65.886 22.1875 65.4503 22.6212 65.4503 23.1562C65.4503 23.6913 65.886 24.125 66.4235 24.125H81.8869V28H63.7508C61.4041 28 59.5016 25.8314 59.5016 23.1562C59.5016 20.4811 61.4041 18.3125 63.7508 18.3125H75.5247C76.0619 18.3123 76.4978 17.8786 76.4978 17.3438C76.4978 16.8089 76.0619 16.3752 75.5247 16.375H62.2979C61.223 16.375 60.3516 15.5076 60.3516 14.4375C60.3516 13.3674 61.223 12.5 62.2979 12.5H81.8865Z" fill="#FF4752"/>
<path d="M98.8334 0C100.594 5.52063e-05 102.022 3.00811 102.022 6.71875C102.022 10.4293 100.595 13.4371 98.8339 13.4375V13.4424C98.8091 13.441 98.784 13.4385 98.7589 13.4385H90.6185C89.873 13.4385 89.2687 14.0401 89.2687 14.7822C89.2687 15.5244 89.873 16.126 90.6185 16.126H98.1958V16.125H98.7775C98.7964 16.1242 98.8152 16.1231 98.8339 16.1221V16.125H101.384V21.5H98.8339V21.5015H87.9934C86.2326 21.5014 84.8052 18.4929 84.8052 14.7822C84.8052 11.0716 86.2326 8.06353 87.9934 8.06348H92.1381V8.0625H96.2083C96.9538 8.06247 97.5581 7.46088 97.5581 6.71875C97.5581 5.97663 96.9538 5.37503 96.2083 5.375H88.068C88.0429 5.37502 88.0177 5.37756 87.9929 5.37891V5.35205C87.8889 5.36684 87.7827 5.375 87.6746 5.375C86.442 5.37498 85.4428 4.38033 85.4428 3.15332V2.22168C85.4428 0.994686 86.442 1.51719e-05 87.6746 0C87.7826 0 87.8889 0.00768189 87.9929 0.0224609V0H98.8334Z" fill="#FF4752"/>
<path d="M123.313 13.7953C123.34 10.4652 124.23 9.41788 125.849 8.42423C127.009 7.67227 127.899 6.83975 127.899 5.6044C127.899 4.26163 126.847 3.3754 125.552 3.3754C124.284 3.3754 123.124 4.20792 123.07 5.79239H119.24C119.321 2.00577 122.126 0.206453 125.579 0.206453C129.329 0.206453 132 2.1669 132 5.47013C132 7.67227 130.867 9.09561 129.086 10.143C127.576 11.0561 126.901 11.9154 126.874 13.7953V14.0907H123.313V13.7953ZM125.175 20.1601C123.907 20.1601 122.882 19.1396 122.909 17.9042C122.882 16.6689 123.907 15.6752 125.175 15.6752C126.362 15.6752 127.414 16.6689 127.414 17.9042C127.414 19.1396 126.362 20.1601 125.175 20.1601Z" fill="#FF4752"/>
</svg>
