<svg xmlns="http://www.w3.org/2000/svg" version="1.1" xmlns:xlink="http://www.w3.org/1999/xlink" width="1000" height="1000"><style>
    #light-icon {
      display: inline;
    }
    #dark-icon {
      display: none;
    }

    @media (prefers-color-scheme: dark) {
      #light-icon {
        display: none;
      }
      #dark-icon {
        display: inline;
      }
    }
  </style><g id="light-icon"><svg xmlns="http://www.w3.org/2000/svg" version="1.1" xmlns:xlink="http://www.w3.org/1999/xlink" width="1000" height="1000"><g clip-path="url(#SvgjsClipPath1409)"><rect width="1000" height="1000" fill="#ffffff"></rect><g transform="matrix(10.9375,0,0,10.9375,150,150)"><svg xmlns="http://www.w3.org/2000/svg" version="1.1" xmlns:xlink="http://www.w3.org/1999/xlink" width="64" height="64"><svg width="64" height="64" viewBox="0 0 64 64" fill="none" xmlns="http://www.w3.org/2000/svg">
<rect width="64" height="64" fill="#FF4752"></rect>
<path d="M30.9925 18.996C30.9925 17.119 30.103 15.2421 28.8577 14.0476C27.6124 12.8532 25.6555 12 23.6985 12H14.4476C11.9569 12 10 14.0476 10 16.4365C10 18.8254 11.9569 20.873 14.4476 20.873H20.1405C21.03 20.873 21.9195 21.5556 21.9195 22.5794L21.9195 29.8571H30.9926L30.9925 18.996Z" fill="white"></path>
<path d="M45.5412 16.4365C45.5412 14.0476 43.5869 12 41.0962 12C38.4277 12 36.4664 14.0476 36.4664 16.4365V29.8571H45.5412V16.4365Z" fill="white"></path>
<path d="M45.1049 18.8255H50.4664C52.418 18.8255 54 20.3534 54 22.2382C54 24.123 52.418 25.6509 50.4664 25.6509H45.1049V18.8255Z" fill="white"></path>
<path d="M47.0037 29.8571V43.6964H24.2344C23.443 43.6964 22.8014 44.316 22.8014 45.0804C22.8014 45.8447 23.443 46.4643 24.2344 46.4643H47.0044V52H20.2988C16.8433 52 14.0418 48.902 14.0418 45.0804C14.0418 41.2587 16.8433 38.1607 20.2988 38.1607H37.6359C38.4271 38.1604 39.0689 37.5409 39.0689 36.7768C39.0689 36.0127 38.4271 35.3932 37.6359 35.3929H18.1594C16.5766 35.3929 15.2935 34.1536 15.2935 32.625C15.2935 31.0964 16.5766 29.8571 18.1594 29.8571H47.0037Z" fill="white"></path>
<path d="M30.9925 18.996C30.9925 17.119 30.103 15.2421 28.8577 14.0476C27.6124 12.8532 25.6555 12 23.6985 12H14.4476C11.9569 12 10 14.0476 10 16.4365C10 18.8254 11.9569 20.873 14.4476 20.873H20.1405C21.03 20.873 21.9195 21.5556 21.9195 22.5794L21.9195 29.8571H30.9926L30.9925 18.996Z" fill="white"></path>
<path d="M45.5412 16.4365C45.5412 14.0476 43.5869 12 41.0962 12C38.4277 12 36.4664 14.0476 36.4664 16.4365V29.8571H45.5412V16.4365Z" fill="white"></path>
<path d="M47.0037 29.8571V43.6964H24.2344C23.443 43.6964 22.8014 44.316 22.8014 45.0804C22.8014 45.8447 23.443 46.4643 24.2344 46.4643H47.0044V52H20.2988C16.8433 52 14.0418 48.902 14.0418 45.0804C14.0418 41.2587 16.8433 38.1607 20.2988 38.1607H37.6359C38.4271 38.1604 39.0689 37.5409 39.0689 36.7768C39.0689 36.0127 38.4271 35.3932 37.6359 35.3929H18.1594C16.5766 35.3929 15.2935 34.1536 15.2935 32.625C15.2935 31.0964 16.5766 29.8571 18.1594 29.8571H47.0037Z" fill="white"></path>
<path d="M30.9925 18.996C30.9925 17.119 30.103 15.2421 28.8577 14.0476C27.6124 12.8532 25.6555 12 23.6985 12H14.4476C11.9569 12 10 14.0476 10 16.4365C10 18.8254 11.9569 20.873 14.4476 20.873H20.1405C21.03 20.873 21.9195 21.5556 21.9195 22.5794L21.9195 29.8571H30.9926L30.9925 18.996Z" fill="white"></path>
<path d="M45.5412 16.4365C45.5412 14.0476 43.5869 12 41.0962 12C38.4277 12 36.4664 14.0476 36.4664 16.4365V29.8571H45.5412V16.4365Z" fill="white"></path>
<path d="M47.0037 29.8571V43.6964H24.2344C23.443 43.6964 22.8014 44.316 22.8014 45.0804C22.8014 45.8447 23.443 46.4643 24.2344 46.4643H47.0044V52H20.2988C16.8433 52 14.0418 48.902 14.0418 45.0804C14.0418 41.2587 16.8433 38.1607 20.2988 38.1607H37.6359C38.4271 38.1604 39.0689 37.5409 39.0689 36.7768C39.0689 36.0127 38.4271 35.3932 37.6359 35.3929H18.1594C16.5766 35.3929 15.2935 34.1536 15.2935 32.625C15.2935 31.0964 16.5766 29.8571 18.1594 29.8571H47.0037Z" fill="white"></path>
<path d="M30.9925 18.996C30.9925 17.119 30.103 15.2421 28.8577 14.0476C27.6124 12.8532 25.6555 12 23.6985 12H14.4476C11.9569 12 10 14.0476 10 16.4365C10 18.8254 11.9569 20.873 14.4476 20.873H20.1405C21.03 20.873 21.9195 21.5556 21.9195 22.5794L21.9195 29.8571H30.9926L30.9925 18.996Z" fill="white"></path>
<path d="M45.5412 16.4365C45.5412 14.0476 43.5869 12 41.0962 12C38.4277 12 36.4664 14.0476 36.4664 16.4365V29.8571H45.5412V16.4365Z" fill="white"></path>
<path d="M47.0037 29.8571V43.6964H24.2344C23.443 43.6964 22.8014 44.316 22.8014 45.0804C22.8014 45.8447 23.443 46.4643 24.2344 46.4643H47.0044V52H20.2988C16.8433 52 14.0418 48.902 14.0418 45.0804C14.0418 41.2587 16.8433 38.1607 20.2988 38.1607H37.6359C38.4271 38.1604 39.0689 37.5409 39.0689 36.7768C39.0689 36.0127 38.4271 35.3932 37.6359 35.3929H18.1594C16.5766 35.3929 15.2935 34.1536 15.2935 32.625C15.2935 31.0964 16.5766 29.8571 18.1594 29.8571H47.0037Z" fill="white"></path>
</svg></svg></g></g><defs><clipPath id="SvgjsClipPath1409"><rect width="1000" height="1000" x="0" y="0" rx="500" ry="500"></rect></clipPath></defs></svg></g><g id="dark-icon"><svg xmlns="http://www.w3.org/2000/svg" version="1.1" xmlns:xlink="http://www.w3.org/1999/xlink" width="1000" height="1000"><g clip-path="url(#SvgjsClipPath1410)"><rect width="1000" height="1000" fill="#ffffff"></rect><g transform="matrix(10.9375,0,0,10.9375,150,150)"><svg xmlns="http://www.w3.org/2000/svg" version="1.1" xmlns:xlink="http://www.w3.org/1999/xlink" width="64" height="64"><svg width="64" height="64" viewBox="0 0 64 64" fill="none" xmlns="http://www.w3.org/2000/svg">
<rect width="64" height="64" fill="#FF4752"></rect>
<path d="M30.9925 18.996C30.9925 17.119 30.103 15.2421 28.8577 14.0476C27.6124 12.8532 25.6555 12 23.6985 12H14.4476C11.9569 12 10 14.0476 10 16.4365C10 18.8254 11.9569 20.873 14.4476 20.873H20.1405C21.03 20.873 21.9195 21.5556 21.9195 22.5794L21.9195 29.8571H30.9926L30.9925 18.996Z" fill="white"></path>
<path d="M45.5412 16.4365C45.5412 14.0476 43.5869 12 41.0962 12C38.4277 12 36.4664 14.0476 36.4664 16.4365V29.8571H45.5412V16.4365Z" fill="white"></path>
<path d="M45.1049 18.8255H50.4664C52.418 18.8255 54 20.3534 54 22.2382C54 24.123 52.418 25.6509 50.4664 25.6509H45.1049V18.8255Z" fill="white"></path>
<path d="M47.0037 29.8571V43.6964H24.2344C23.443 43.6964 22.8014 44.316 22.8014 45.0804C22.8014 45.8447 23.443 46.4643 24.2344 46.4643H47.0044V52H20.2988C16.8433 52 14.0418 48.902 14.0418 45.0804C14.0418 41.2587 16.8433 38.1607 20.2988 38.1607H37.6359C38.4271 38.1604 39.0689 37.5409 39.0689 36.7768C39.0689 36.0127 38.4271 35.3932 37.6359 35.3929H18.1594C16.5766 35.3929 15.2935 34.1536 15.2935 32.625C15.2935 31.0964 16.5766 29.8571 18.1594 29.8571H47.0037Z" fill="white"></path>
<path d="M30.9925 18.996C30.9925 17.119 30.103 15.2421 28.8577 14.0476C27.6124 12.8532 25.6555 12 23.6985 12H14.4476C11.9569 12 10 14.0476 10 16.4365C10 18.8254 11.9569 20.873 14.4476 20.873H20.1405C21.03 20.873 21.9195 21.5556 21.9195 22.5794L21.9195 29.8571H30.9926L30.9925 18.996Z" fill="white"></path>
<path d="M45.5412 16.4365C45.5412 14.0476 43.5869 12 41.0962 12C38.4277 12 36.4664 14.0476 36.4664 16.4365V29.8571H45.5412V16.4365Z" fill="white"></path>
<path d="M47.0037 29.8571V43.6964H24.2344C23.443 43.6964 22.8014 44.316 22.8014 45.0804C22.8014 45.8447 23.443 46.4643 24.2344 46.4643H47.0044V52H20.2988C16.8433 52 14.0418 48.902 14.0418 45.0804C14.0418 41.2587 16.8433 38.1607 20.2988 38.1607H37.6359C38.4271 38.1604 39.0689 37.5409 39.0689 36.7768C39.0689 36.0127 38.4271 35.3932 37.6359 35.3929H18.1594C16.5766 35.3929 15.2935 34.1536 15.2935 32.625C15.2935 31.0964 16.5766 29.8571 18.1594 29.8571H47.0037Z" fill="white"></path>
<path d="M30.9925 18.996C30.9925 17.119 30.103 15.2421 28.8577 14.0476C27.6124 12.8532 25.6555 12 23.6985 12H14.4476C11.9569 12 10 14.0476 10 16.4365C10 18.8254 11.9569 20.873 14.4476 20.873H20.1405C21.03 20.873 21.9195 21.5556 21.9195 22.5794L21.9195 29.8571H30.9926L30.9925 18.996Z" fill="white"></path>
<path d="M45.5412 16.4365C45.5412 14.0476 43.5869 12 41.0962 12C38.4277 12 36.4664 14.0476 36.4664 16.4365V29.8571H45.5412V16.4365Z" fill="white"></path>
<path d="M47.0037 29.8571V43.6964H24.2344C23.443 43.6964 22.8014 44.316 22.8014 45.0804C22.8014 45.8447 23.443 46.4643 24.2344 46.4643H47.0044V52H20.2988C16.8433 52 14.0418 48.902 14.0418 45.0804C14.0418 41.2587 16.8433 38.1607 20.2988 38.1607H37.6359C38.4271 38.1604 39.0689 37.5409 39.0689 36.7768C39.0689 36.0127 38.4271 35.3932 37.6359 35.3929H18.1594C16.5766 35.3929 15.2935 34.1536 15.2935 32.625C15.2935 31.0964 16.5766 29.8571 18.1594 29.8571H47.0037Z" fill="white"></path>
<path d="M30.9925 18.996C30.9925 17.119 30.103 15.2421 28.8577 14.0476C27.6124 12.8532 25.6555 12 23.6985 12H14.4476C11.9569 12 10 14.0476 10 16.4365C10 18.8254 11.9569 20.873 14.4476 20.873H20.1405C21.03 20.873 21.9195 21.5556 21.9195 22.5794L21.9195 29.8571H30.9926L30.9925 18.996Z" fill="white"></path>
<path d="M45.5412 16.4365C45.5412 14.0476 43.5869 12 41.0962 12C38.4277 12 36.4664 14.0476 36.4664 16.4365V29.8571H45.5412V16.4365Z" fill="white"></path>
<path d="M47.0037 29.8571V43.6964H24.2344C23.443 43.6964 22.8014 44.316 22.8014 45.0804C22.8014 45.8447 23.443 46.4643 24.2344 46.4643H47.0044V52H20.2988C16.8433 52 14.0418 48.902 14.0418 45.0804C14.0418 41.2587 16.8433 38.1607 20.2988 38.1607H37.6359C38.4271 38.1604 39.0689 37.5409 39.0689 36.7768C39.0689 36.0127 38.4271 35.3932 37.6359 35.3929H18.1594C16.5766 35.3929 15.2935 34.1536 15.2935 32.625C15.2935 31.0964 16.5766 29.8571 18.1594 29.8571H47.0037Z" fill="white"></path>
</svg></svg></g></g><defs><clipPath id="SvgjsClipPath1410"><rect width="1000" height="1000" x="0" y="0" rx="0" ry="0"></rect></clipPath></defs></svg></g></svg>