<svg width="64" height="64" viewBox="0 0 64 64" fill="none" xmlns="http://www.w3.org/2000/svg">
<circle cx="32" cy="32" r="32" fill="#FF4752"/>
<path d="M30.9925 20.996C30.9925 19.119 30.103 17.2421 28.8577 16.0476C27.6124 14.8532 25.6555 14 23.6985 14H14.4476C11.9569 14 10 16.0476 10 18.4365C10 20.8254 11.9569 22.873 14.4476 22.873H20.1405C21.03 22.873 21.9195 23.5556 21.9195 24.5794L21.9195 31.8571H30.9926L30.9925 20.996Z" fill="white"/>
<path d="M45.5412 18.4365C45.5412 16.0476 43.5869 14 41.0962 14C38.4277 14 36.4664 16.0476 36.4664 18.4365V31.8571H45.5412V18.4365Z" fill="white"/>
<path d="M45.1049 20.8255H50.4664C52.418 20.8255 54 22.3534 54 24.2382C54 26.123 52.418 27.6509 50.4664 27.6509H45.1049V20.8255Z" fill="white"/>
<path d="M47.0037 31.8571V45.6964H24.2344C23.443 45.6964 22.8014 46.316 22.8014 47.0804C22.8014 47.8447 23.443 48.4643 24.2344 48.4643H47.0044V54H20.2988C16.8433 54 14.0418 50.902 14.0418 47.0804C14.0418 43.2587 16.8433 40.1607 20.2988 40.1607H37.6359C38.4271 40.1604 39.0689 39.5409 39.0689 38.7768C39.0689 38.0127 38.4271 37.3932 37.6359 37.3929H18.1594C16.5766 37.3929 15.2935 36.1536 15.2935 34.625C15.2935 33.0964 16.5766 31.8571 18.1594 31.8571H47.0037Z" fill="white"/>
<path d="M30.9925 20.996C30.9925 19.119 30.103 17.2421 28.8577 16.0476C27.6124 14.8532 25.6555 14 23.6985 14H14.4476C11.9569 14 10 16.0476 10 18.4365C10 20.8254 11.9569 22.873 14.4476 22.873H20.1405C21.03 22.873 21.9195 23.5556 21.9195 24.5794L21.9195 31.8571H30.9926L30.9925 20.996Z" fill="white"/>
<path d="M45.5412 18.4365C45.5412 16.0476 43.5869 14 41.0962 14C38.4277 14 36.4664 16.0476 36.4664 18.4365V31.8571H45.5412V18.4365Z" fill="white"/>
<path d="M47.0037 31.8571V45.6964H24.2344C23.443 45.6964 22.8014 46.316 22.8014 47.0804C22.8014 47.8447 23.443 48.4643 24.2344 48.4643H47.0044V54H20.2988C16.8433 54 14.0418 50.902 14.0418 47.0804C14.0418 43.2587 16.8433 40.1607 20.2988 40.1607H37.6359C38.4271 40.1604 39.0689 39.5409 39.0689 38.7768C39.0689 38.0127 38.4271 37.3932 37.6359 37.3929H18.1594C16.5766 37.3929 15.2935 36.1536 15.2935 34.625C15.2935 33.0964 16.5766 31.8571 18.1594 31.8571H47.0037Z" fill="white"/>
<path d="M30.9925 20.996C30.9925 19.119 30.103 17.2421 28.8577 16.0476C27.6124 14.8532 25.6555 14 23.6985 14H14.4476C11.9569 14 10 16.0476 10 18.4365C10 20.8254 11.9569 22.873 14.4476 22.873H20.1405C21.03 22.873 21.9195 23.5556 21.9195 24.5794L21.9195 31.8571H30.9926L30.9925 20.996Z" fill="white"/>
<path d="M45.5412 18.4365C45.5412 16.0476 43.5869 14 41.0962 14C38.4277 14 36.4664 16.0476 36.4664 18.4365V31.8571H45.5412V18.4365Z" fill="white"/>
<path d="M47.0037 31.8571V45.6964H24.2344C23.443 45.6964 22.8014 46.316 22.8014 47.0804C22.8014 47.8447 23.443 48.4643 24.2344 48.4643H47.0044V54H20.2988C16.8433 54 14.0418 50.902 14.0418 47.0804C14.0418 43.2587 16.8433 40.1607 20.2988 40.1607H37.6359C38.4271 40.1604 39.0689 39.5409 39.0689 38.7768C39.0689 38.0127 38.4271 37.3932 37.6359 37.3929H18.1594C16.5766 37.3929 15.2935 36.1536 15.2935 34.625C15.2935 33.0964 16.5766 31.8571 18.1594 31.8571H47.0037Z" fill="white"/>
<path d="M30.9925 20.996C30.9925 19.119 30.103 17.2421 28.8577 16.0476C27.6124 14.8532 25.6555 14 23.6985 14H14.4476C11.9569 14 10 16.0476 10 18.4365C10 20.8254 11.9569 22.873 14.4476 22.873H20.1405C21.03 22.873 21.9195 23.5556 21.9195 24.5794L21.9195 31.8571H30.9926L30.9925 20.996Z" fill="white"/>
<path d="M45.5412 18.4365C45.5412 16.0476 43.5869 14 41.0962 14C38.4277 14 36.4664 16.0476 36.4664 18.4365V31.8571H45.5412V18.4365Z" fill="white"/>
<path d="M47.0037 31.8571V45.6964H24.2344C23.443 45.6964 22.8014 46.316 22.8014 47.0804C22.8014 47.8447 23.443 48.4643 24.2344 48.4643H47.0044V54H20.2988C16.8433 54 14.0418 50.902 14.0418 47.0804C14.0418 43.2587 16.8433 40.1607 20.2988 40.1607H37.6359C38.4271 40.1604 39.0689 39.5409 39.0689 38.7768C39.0689 38.0127 38.4271 37.3932 37.6359 37.3929H18.1594C16.5766 37.3929 15.2935 36.1536 15.2935 34.625C15.2935 33.0964 16.5766 31.8571 18.1594 31.8571H47.0037Z" fill="white"/>
</svg>
